<svg preserveAspectRatio="none" width="100%" height="100%" overflow="visible" style="display: block;" viewBox="0 0 20.5906 23.4" fill="none" xmlns="http://www.w3.org/2000/svg">
<g id="Group 1000004653">
<g id="Group 1000004623">
<path id="Vector 450" d="M11.0377 23H1.4C0.847716 23 0.4 22.5523 0.4 22V14.5362C0.4 14.1574 0.614002 13.8111 0.952786 13.6418L5.84957 11.1934" stroke="var(--stroke-0, #222222)" stroke-width="0.8" stroke-linecap="round" stroke-linejoin="round"/>
<path id="Vector 453" d="M14.0241 22.7736V1.74104C14.0241 0.969246 13.1869 0.488375 12.5202 0.877258L11.9805 1.19209L9.93689 2.38419L6.34584 4.47897C6.03862 4.65818 5.84971 4.98708 5.84971 5.34275V18.6864" stroke="var(--stroke-0, #222222)" stroke-width="0.8" stroke-linecap="round" stroke-linejoin="round"/>
</g>
<path id="Vector 833" d="M14.0982 23H19.1906C19.7429 23 20.1906 22.5523 20.1906 22V10.362C20.1906 10.0172 20.013 9.69673 19.7206 9.51399L14.0982 6" stroke="var(--stroke-0, #222222)" stroke-width="0.8" stroke-linecap="round" stroke-linejoin="round"/>
<path id="Vector 834" d="M8.3375 7.44434L8.3375 8.10655" stroke="var(--stroke-0, #222222)" stroke-width="0.8" stroke-linecap="round" stroke-linejoin="round"/>
<path id="Vector 835" d="M8.3375 13.0791L8.3375 13.7413" stroke="var(--stroke-0, #222222)" stroke-width="0.8" stroke-linecap="round" stroke-linejoin="round"/>
<path id="Vector 836" d="M11.4376 13.0791L11.4376 13.7413" stroke="var(--stroke-0, #222222)" stroke-width="0.8" stroke-linecap="round" stroke-linejoin="round"/>
<path id="Vector 837" d="M11.4376 7.44434L11.4376 8.10655" stroke="var(--stroke-0, #222222)" stroke-width="0.8" stroke-linecap="round" stroke-linejoin="round"/>
<path id="Vector 838" d="M2.88096 15.6021L2.88096 16.2643" stroke="var(--stroke-0, #222222)" stroke-width="0.8" stroke-linecap="round" stroke-linejoin="round"/>
<path id="Vector 839" d="M2.88096 20.2393L2.88096 20.9015" stroke="var(--stroke-0, #222222)" stroke-width="0.8" stroke-linecap="round" stroke-linejoin="round"/>
<path id="Vector 840" d="M17.1114 12.6021L17.1114 13.2643" stroke="var(--stroke-0, #222222)" stroke-width="0.8" stroke-linecap="round" stroke-linejoin="round"/>
<path id="Vector 841" d="M17.1114 17.6021L17.1114 18.2643" stroke="var(--stroke-0, #222222)" stroke-width="0.8" stroke-linecap="round" stroke-linejoin="round"/>
</g>
</svg>
