<svg width="16" height="16" viewBox="45 2 15 13" fill="none" xmlns="http://www.w3.org/2000/svg">
<path d="M58.9888 9.8125L58.2388 3.8125C58.1931 3.44993 58.0166 3.1165 57.7425 2.87483C57.4684 2.63316 57.1154 2.49987 56.75 2.5H46C45.7348 2.5 45.4804 2.60536 45.2929 2.79289C45.1054 2.98043 45 3.23478 45 3.5V9C45 9.26522 45.1054 9.51957 45.2929 9.70711C45.4804 9.89464 45.7348 10 46 10H48.6912L51.0525 14.7238C51.0941 14.8068 51.158 14.8767 51.237 14.9255C51.316 14.9743 51.4071 15.0001 51.5 15C52.163 15 52.7989 14.7366 53.2678 14.2678C53.7366 13.7989 54 13.163 54 12.5V11.5H57.5C57.7129 11.5001 57.9233 11.4548 58.1173 11.3673C58.3113 11.2798 58.4845 11.152 58.6253 10.9923C58.7662 10.8327 58.8714 10.645 58.9341 10.4415C58.9967 10.2381 59.0154 10.0237 58.9888 9.8125ZM48.5 9H46V3.5H48.5V9ZM57.875 10.3306C57.8284 10.3842 57.7708 10.4271 57.706 10.4564C57.6413 10.4856 57.571 10.5005 57.5 10.5H53.5C53.3674 10.5 53.2402 10.5527 53.1464 10.6464C53.0527 10.7402 53 10.8674 53 11V12.5C53.0001 12.8468 52.88 13.1829 52.6602 13.4512C52.4404 13.7194 52.1344 13.9032 51.7944 13.9712L49.5 9.38188V3.5H56.75C56.8718 3.49996 56.9895 3.54439 57.0808 3.62494C57.1722 3.7055 57.231 3.81664 57.2463 3.9375L57.9963 9.9375C58.0056 10.0079 57.9996 10.0795 57.9787 10.1473C57.9578 10.2152 57.9224 10.2777 57.875 10.3306Z" fill="currentColor"/>
</svg>
